<!--
  - Copyright (c) 2024. Aarón Negrín - Zernikalos Engine.
  -
  - This Source Code Form is subject to the terms of the Mozilla Public
  - License, v. 2.0. If a copy of the MPL was not distributed with this
  - file, You can obtain one at https://mozilla.org/MPL/2.0/.
  -->

<svg data-v-423bf9ae="" xmlns="http://www.w3.org/2000/svg" viewBox="0 0 1154.118095375432 1392" class="iconAbove">
    <!--Zernikalos text-->
<!--    <g data-v-423bf9ae="" id="3a7317fb-3e12-4dbf-9876-7dc9f2be21ca" fill="#2F190E" transform="matrix(5.741627423040299,0,0,5.741627423040299,386.6666775746007,1291.7459612858902)">-->
<!--        <path d="M3.84 11.76L3.78 11.68L0.92 11.68L0.78 10.18L6.44 10.18L6.44 11.33L3.15 15.60L3.19 15.68L6.45 15.68L6.45 17.18L0.53 17.18L0.53 16.03L3.84 11.76ZM11.12 15.79L11.12 15.79Q12.18 15.79 13.57 15.44L13.57 15.44L13.83 16.90L13.83 16.90Q12.56 17.35 10.85 17.35L10.85 17.35L10.85 17.35Q9.66 17.35 8.97 17.00L8.97 17.00L8.97 17.00Q8.27 16.65 7.96 15.85L7.96 15.85L7.96 15.85Q7.64 15.05 7.64 13.68L7.64 13.68L7.64 13.68Q7.64 12.33 7.97 11.54L7.97 11.54L7.97 11.54Q8.30 10.74 9.02 10.37L9.02 10.37L9.02 10.37Q9.74 10.01 10.96 10.01L10.96 10.01L10.96 10.01Q12.17 10.01 12.82 10.21L12.82 10.21L12.82 10.21Q13.47 10.40 13.74 10.88L13.74 10.88L13.74 10.88Q14.01 11.35 14.01 12.24L14.01 12.24L14.01 12.24Q14.01 13.17 13.67 13.65L13.67 13.65L13.67 13.65Q13.33 14.13 12.46 14.32L12.46 14.32L12.46 14.32Q11.59 14.50 9.87 14.50L9.87 14.50L9.87 15.68L9.87 15.68Q10.30 15.79 11.12 15.79L11.12 15.79ZM10.93 11.58L10.93 11.58Q10.32 11.58 10.09 11.73L10.09 11.73L10.09 11.73Q9.87 11.87 9.87 12.26L9.87 12.26L9.87 13.36L11.06 13.36L11.06 13.36Q11.68 13.36 11.91 13.21L11.91 13.21L11.91 13.21Q12.14 13.06 12.14 12.66L12.14 12.66L12.14 11.58L10.93 11.58ZM16.79 10.18L17.42 11.20L17.42 11.20Q18.40 10.25 19.40 9.97L19.40 9.97L19.56 12.00L19.56 12.00Q19.17 12.08 18.65 12.30L18.65 12.30L18.65 12.30Q18.13 12.52 17.85 12.73L17.85 12.73L17.85 17.18L15.76 17.18L15.76 10.18L16.79 10.18ZM20.69 17.18L20.69 10.18L21.70 10.18L22.25 10.88L22.25 10.88Q23.37 10.01 24.95 10.01L24.95 10.01L24.95 10.01Q25.93 10.01 26.46 10.37L26.46 10.37L26.46 10.37Q26.99 10.72 26.99 11.40L26.99 11.40L26.99 17.18L24.91 17.18L24.91 11.72L23.65 11.72L23.65 11.72Q23.16 11.72 22.97 11.85L22.97 11.85L22.97 11.85Q22.78 11.98 22.78 12.33L22.78 12.33L22.78 17.18L20.69 17.18ZM28.77 17.18L28.77 17.18ZM28.88 10.40L30.97 10.12L30.97 17.18L28.88 17.18L28.88 10.40ZM29.95 9.27L29.95 9.27Q29.26 9.27 29.02 9.03L29.02 9.03L29.02 9.03Q28.77 8.79 28.77 8.12L28.77 8.12L28.77 8.12Q28.77 7.43 29.02 7.19L29.02 7.19L29.02 7.19Q29.26 6.94 29.95 6.94L29.95 6.94L29.95 6.94Q30.60 6.94 30.85 7.19L30.85 7.19L30.85 7.19Q31.09 7.43 31.09 8.12L31.09 8.12L31.09 8.12Q31.09 8.79 30.86 9.03L30.86 9.03L30.86 9.03Q30.62 9.27 29.95 9.27L29.95 9.27ZM35.83 14.10L35.03 14.10L35.03 17.18L32.94 17.18L32.94 8.08L35.03 7.87L35.03 12.78L35.81 12.78L37.06 10.18L39.26 10.18L37.55 13.47L39.33 17.18L37.16 17.18L35.83 14.10ZM43.40 10.01L43.40 10.01Q44.94 10.01 45.61 10.52L45.61 10.52L45.61 10.52Q46.28 11.03 46.28 12.21L46.28 12.21L46.28 17.18L45.28 17.18L44.73 16.48L44.73 16.48Q43.69 17.35 42.29 17.35L42.29 17.35L42.29 17.35Q41.08 17.35 40.54 16.82L40.54 16.82L40.54 16.82Q40.00 16.30 40.00 15.12L40.00 15.12L40.00 15.12Q40.00 14.18 40.32 13.71L40.32 13.71L40.32 13.71Q40.64 13.23 41.45 13.04L41.45 13.04L41.45 13.04Q42.27 12.85 43.89 12.85L43.89 12.85L44.20 12.85L44.20 11.68L44.20 11.68Q43.85 11.56 43.13 11.56L43.13 11.56L43.13 11.56Q41.93 11.56 40.57 11.91L40.57 11.91L40.31 10.46L40.31 10.46Q40.96 10.23 41.77 10.12L41.77 10.12L41.77 10.12Q42.57 10.01 43.40 10.01L43.40 10.01ZM43.15 15.88L43.15 15.88Q43.75 15.88 43.97 15.74L43.97 15.74L43.97 15.74Q44.20 15.60 44.20 15.20L44.20 15.20L44.20 14L42.97 14L42.97 14Q42.35 14 42.13 14.15L42.13 14.15L42.13 14.15Q41.92 14.29 41.92 14.70L41.92 14.70L41.92 15.88L43.15 15.88ZM50.25 15.67L50.25 15.67Q50.57 15.72 50.90 15.75L50.90 15.75L50.81 17.16L50.81 17.16Q50.13 17.35 49.57 17.35L49.57 17.35L49.57 17.35Q48.85 17.35 48.50 17.04L48.50 17.04L48.50 17.04Q48.16 16.73 48.16 16.07L48.16 16.07L48.16 8.08L50.25 7.87L50.25 15.67ZM55.27 17.35L55.27 17.35Q54.00 17.35 53.27 17.00L53.27 17.00L53.27 17.00Q52.54 16.65 52.22 15.86L52.22 15.86L52.22 15.86Q51.90 15.06 51.90 13.68L51.90 13.68L51.90 13.68Q51.90 12.29 52.22 11.50L52.22 11.50L52.22 11.50Q52.54 10.71 53.27 10.36L53.27 10.36L53.27 10.36Q54.00 10.01 55.27 10.01L55.27 10.01L55.27 10.01Q56.55 10.01 57.27 10.35L57.27 10.35L57.27 10.35Q57.99 10.70 58.31 11.49L58.31 11.49L58.31 11.49Q58.63 12.28 58.63 13.68L58.63 13.68L58.63 13.68Q58.63 15.06 58.31 15.86L58.31 15.86L58.31 15.86Q57.99 16.65 57.26 17.00L57.26 17.00L57.26 17.00Q56.53 17.35 55.27 17.35L55.27 17.35ZM54.12 15.74L55.82 15.74L55.82 15.74Q56.17 15.74 56.29 15.66L56.29 15.66L56.29 15.66Q56.42 15.58 56.42 15.37L56.42 15.37L56.42 11.62L54.74 11.62L54.74 11.62Q54.39 11.62 54.26 11.70L54.26 11.70L54.26 11.70Q54.12 11.77 54.12 11.98L54.12 11.98L54.12 15.74ZM59.89 12.19L59.89 12.19Q59.89 11.05 60.59 10.51L60.59 10.51L60.59 10.51Q61.28 9.97 62.78 9.97L62.78 9.97L62.78 9.97Q64.22 9.97 65.44 10.28L65.44 10.28L65.18 11.75L65.18 11.75Q64.41 11.54 63.50 11.54L63.50 11.54L63.50 11.54Q62.71 11.54 62.12 11.68L62.12 11.68L62.12 12.77L62.12 12.77Q63.60 12.95 64.38 13.21L64.38 13.21L64.38 13.21Q65.16 13.47 65.47 13.91L65.47 13.91L65.47 13.91Q65.79 14.35 65.79 15.11L65.79 15.11L65.79 15.11Q65.79 16.32 65.03 16.86L65.03 16.86L65.03 16.86Q64.27 17.39 62.57 17.39L62.57 17.39L62.57 17.39Q61.10 17.39 59.77 16.95L59.77 16.95L60.05 15.39L60.05 15.39Q61.08 15.82 62.31 15.82L62.31 15.82L62.31 15.82Q62.89 15.82 63.56 15.67L63.56 15.67L63.56 14.55L63.56 14.55Q61.96 14.35 61.21 14.11L61.21 14.11L61.21 14.11Q60.45 13.87 60.17 13.45L60.17 13.45L60.17 13.45Q59.89 13.02 59.89 12.19L59.89 12.19Z">-->
<!--            -->
<!--        </path>-->
<!--    </g>-->
    <defs data-v-423bf9ae="">
        <linearGradient data-v-423bf9ae="" gradientTransform="rotate(25)" id="c7f25ce4-a2a3-45fa-ab80-1cba428c264b" x1="0%" y1="0%" x2="100%" y2="0%">
            <stop data-v-423bf9ae="" offset="0%" style="stop-color: #06d9ff; stop-opacity: 1;">

            </stop>
            <stop data-v-423bf9ae="" offset="100%" style="stop-color: #daf9fe; stop-opacity: 1;">

            </stop>
        </linearGradient>
    </defs>
    <g data-v-423bf9ae="" id="b3545fab-4563-4a67-ad97-663106258b18" transform="matrix(3.8276665581597222,0,0,3.8276665581597222,1.0823334828536417,0.6470390443906808)" stroke="none" fill="url(#c7f25ce4-a2a3-45fa-ab80-1cba428c264b)">
        <path d="M283.27 162.48l-28.95 2.31-12.85 6.71-48.76 12.19-9 5-18.24-24 9.34-94.5L199.75.02l-72.56 32.77-19.3-4.54-42.26 57.83-21.36 1.18 5.06 61.8-10.68 11.28 64.81 47.09-8.62 9.19 17.63 7.48-76 48.5-36.52 58h11.63l-5.22 13.91 16.75-17.94-.71 14.95 97.68-82.92h84l35.45-18.57 29.26-31.47 1.94-1.32 11.12-7.25 7.42-14.11 12.2-15.25zm-28.1 5.21l27.56-2.16 11.08 5-16.43 2.53-29.8-1.4zm18.94 8.18L255 196.02l-10.53-21.53zm-32.52-.44l11.07 22.62-43.49 26.51 12.23-28.42zm-36.43 50.83l-.47.09-31.49-5.66 23.92-14.5 20.15-8.13zm-11.35-39.81l43.46-10.84-18 18.42-22.43 9-11.16-12.1zm-10.93 6.07l11.22 12-23.83 14.43-4.43-48.77zm-18.24-50.16l-2-59.47 8.75-9zm7.37-73.34l-11.68 11.95-38.76 11.34 71.49-82.52zm-52.54 27l40.22-11.75 2.58 75.65zm41.1 66.8l-65.45-14.43 22.25-50.12zM128.69 35.43l62.83-28.42-72.06 83.14zm-3.06.1l-8.36 49.54-7-53.15zm-18.12-1.66l7.83 59.52-46.25-6.94zm6.66 62.38l.24 1.27-21.39 48.19-24.16-56.26zm-48.72-7.13l21 48.94-37.59-48zm-17.63 4.42l43.28 55.31-38.83-.72zm-4.62 66.38l7.71-8.14 42.36 44.54zm11.27-8.75l37.53.72 11.12 50.38zm40.61.78h2.29l65.17 14.39 4.84 53.21-60.34-13.6zm67.52 69.61l-32.16 8.23-20-20zm-62.61-6l5.75-6.14 24.24 23.59 14.34 3.36-28.35 9.91 1.19-21.58zm-61.62 61.35l.61-1.39-.25-.11.19-.79 75.13-48-1.14 20.73-58.74 21.93-24.23 42.14zm71-25l-44.8 44.19-7.55-24.69zm-104 75.66l24.5-38.78-17.05 38.78H5.44zm9.09 3.82l.66-1.75 16.24-36.93-6.81 27.87zm12.91-9.6l27.33-47.54 7.41 24.24-36 35.47zm91.67-66.22h-.08l-65 55.22 61.19-60.36 23.94-8.95zm5.21 0l25.38-17.86 45.43 17.86h-70.8zm77.07-.76l-52-20.35-13.05-3.08 32.79-8.37 32.93 5.92 1.39.25.95.17zm3 .24l2.95-24.93 27.55 9zm33.84-18l-29.4-9.59L263 210.35zm-15.92-17l32.27-19.67 9.94 6.35zm45.72-14.64l-8.2-5.24 16 .17zm18.78-21.31l-6.87 13.29-21.81-.23 20.13-21.23 17.29-2.66z">

        </path>
    </g>
    <!---->
</svg>